# xmcd
# 
# Track frame offsets:
#     150
#     13925
#     26805
#     43241
#     56634
#     71375
#     83267
#     96019
#     112952
#     126888
#     139179
#     151605
# 
# Disc length: 2217
# 
# Revision: 1
# Processed by: cddbd v1.5.2PL0 Copyright (c) Steve Scherf et al.
# Submitted via: fre:ac v1.0.17
# 
DISCID=9408a70c
DTITLE=Bert Kaempfert - Bert Kaempfert Now! [Remastered]
DYEAR=1971
DGENRE=Easy Listening
TTITLE0=Put Your Hand in the Hand
TTITLE1=Kiss Her once with Feeling
TTITLE2=Me and My Shadow
TTITLE3=In our Time (A Musical Prayer for Peace)
TTITLE4=Red Sky at Morning
TTITLE5=Falling Free
TTITLE6=Dream Baby (How Long Must I Dream)
TTITLE7=Oh Woman, oh Why
TTITLE8=Grey Eyes Make Me Blue
TTITLE9=Bell Bottoms
TTITLE10=Proud Mary
TTITLE11=Living Easy
EXTD=
EXTT0=
EXTT1=
EXTT2=
EXTT3=
EXTT4=
EXTT5=
EXTT6=
EXTT7=
EXTT8=
EXTT9=
EXTT10=
EXTT11=
PLAYORDER=
